<svg id="Группа_2" data-name="Группа 2" xmlns="http://www.w3.org/2000/svg" xmlns:xlink="http://www.w3.org/1999/xlink" width="1627" height="362" viewBox="0 0 1627 362">
  <defs>
    <style>
      .cls-1 {
        fill: #fe3e57;
        filter: url(#filter);
      }

      .cls-1, .cls-2 {
        fill-rule: evenodd;
      }

      .cls-2 {
        fill: #34c3ff;
      }
    </style>
    <filter id="filter" x="1685" y="6174" width="66" height="66" filterUnits="userSpaceOnUse">
      <feOffset result="offset" dy="3" in="SourceAlpha"/>
      <feGaussianBlur result="blur" stdDeviation="3.162"/>
      <feFlood result="flood" flood-color="#fe3e57" flood-opacity="0.5"/>
      <feComposite result="composite" operator="in" in2="blur"/>
      <feBlend result="blend" in="SourceGraphic"/>
    </filter>
  </defs>
  <path class="cls-1" d="M1717.5,6180a23.5,23.5,0,1,0,23.5,23.5A23.5,23.5,0,0,0,1717.5,6180Zm0,42.19a18.7,18.7,0,1,1,18.7-18.69A18.689,18.689,0,0,1,1717.5,6222.19Zm0.02-24.3a5.605,5.605,0,1,0,5.59,5.63A5.614,5.614,0,0,0,1717.52,6197.89Z" transform="translate(-124 -5878)"/>
  <path class="cls-2" d="M205.4,5906.77a2.155,2.155,0,1,0,2.161,2.15A2.154,2.154,0,0,0,205.4,5906.77Zm-14.406,0a2.155,2.155,0,1,0,2.16,2.15A2.155,2.155,0,0,0,190.992,5906.77Zm0-14.39a2.16,2.16,0,1,0,2.16,2.16A2.163,2.163,0,0,0,190.992,5892.38Zm-14.407,0h0a2.16,2.16,0,1,0,0,4.32h0A2.16,2.16,0,1,0,176.585,5892.38Zm21.61,21.58a2.155,2.155,0,1,0,2.16,2.16A2.156,2.156,0,0,0,198.2,5913.96Zm14.407,0a2.155,2.155,0,1,0,2.161,2.16A2.157,2.157,0,0,0,212.6,5913.96ZM198.2,5899.57a2.16,2.16,0,1,0,2.16,2.16A2.163,2.163,0,0,0,198.2,5899.57Zm-14.407,0a2.16,2.16,0,1,0,2.161,2.16A2.163,2.163,0,0,0,183.788,5899.57Zm36.017,35.96a2.16,2.16,0,1,0,2.16,2.16A2.162,2.162,0,0,0,219.805,5935.53Zm-14.407,0a2.16,2.16,0,1,0,2.161,2.16A2.162,2.162,0,0,0,205.4,5935.53Zm-14.406,0a2.16,2.16,0,1,0,2.16,2.16A2.163,2.163,0,0,0,190.992,5935.53Zm28.813-14.38a2.155,2.155,0,1,0,2.16,2.16A2.162,2.162,0,0,0,219.805,5921.15Zm-14.407,0a2.155,2.155,0,1,0,2.161,2.16A2.162,2.162,0,0,0,205.4,5921.15Zm-14.406,0a2.155,2.155,0,1,0,2.16,2.16A2.163,2.163,0,0,0,190.992,5921.15Zm-14.407,0h0a2.155,2.155,0,1,0,0,4.31h0A2.155,2.155,0,1,0,176.585,5921.15Zm21.61,21.58a2.155,2.155,0,1,0,2.16,2.15A2.154,2.154,0,0,0,198.2,5942.73Zm14.407,0a2.155,2.155,0,1,0,2.161,2.15A2.154,2.154,0,0,0,212.6,5942.73ZM198.2,5928.34a2.16,2.16,0,1,0,2.16,2.16A2.163,2.163,0,0,0,198.2,5928.34Zm16.567,2.16a2.161,2.161,0,1,0-2.161,2.16A2.163,2.163,0,0,0,214.762,5930.5Zm12.247-2.16a2.16,2.16,0,1,0,2.16,2.16A2.163,2.163,0,0,0,227.009,5928.34Zm-43.221,0a2.16,2.16,0,1,0,2.161,2.16A2.163,2.163,0,0,0,183.788,5928.34Zm7.2,35.96a2.16,2.16,0,1,0,2.16,2.16A2.163,2.163,0,0,0,190.992,5964.3Zm14.406-14.38a2.155,2.155,0,1,0,2.161,2.15A2.154,2.154,0,0,0,205.4,5949.92Zm-14.406,0a2.155,2.155,0,1,0,2.16,2.15A2.155,2.155,0,0,0,190.992,5949.92Zm-14.407,0h0a2.155,2.155,0,1,0,0,4.31h0A2.155,2.155,0,1,0,176.585,5949.92Zm21.61,7.19a2.155,2.155,0,1,0,2.16,2.16A2.156,2.156,0,0,0,198.2,5957.11Zm-14.407,0a2.155,2.155,0,1,0,2.161,2.16A2.157,2.157,0,0,0,183.788,5957.11Zm-7.2,21.57h0a2.16,2.16,0,1,0,0,4.32h0A2.16,2.16,0,1,0,176.585,5978.68Zm0-96.37a2.155,2.155,0,1,0-2.162-2.15A2.154,2.154,0,0,0,176.584,5882.31Zm-7.2,2.88a2.155,2.155,0,1,0,2.162,2.16A2.163,2.163,0,0,0,169.38,5885.19Zm14.408,4.31a2.155,2.155,0,1,0-2.163-2.15A2.155,2.155,0,0,0,183.788,5889.5Zm-7.2,21.58a2.155,2.155,0,1,0-2.162-2.16A2.163,2.163,0,0,0,176.584,5911.08Zm-7.2,2.88a2.155,2.155,0,1,0,2.162,2.16A2.156,2.156,0,0,0,169.38,5913.96Zm14.408,4.31a2.155,2.155,0,1,0-2.163-2.15A2.155,2.155,0,0,0,183.788,5918.27Zm-14.408-18.7a2.16,2.16,0,1,0,2.162,2.16A2.163,2.163,0,0,0,169.38,5899.57Zm-13.565.17a2.14,2.14,0,0,0-.84-0.17h0a2.17,2.17,0,0,0-1.991,1.32,2.16,2.16,0,0,0,1.991,3h0a2.16,2.16,0,0,0,2.16-2.16A2.168,2.168,0,0,0,155.815,5899.74Zm20.769,40.11a2.16,2.16,0,1,0-2.162-2.16A2.163,2.163,0,0,0,176.584,5939.85Zm-7.2,2.88a2.155,2.155,0,1,0,2.162,2.15A2.154,2.154,0,0,0,169.38,5942.73Zm14.408,4.31a2.155,2.155,0,1,0-2.163-2.16A2.163,2.163,0,0,0,183.788,5947.04Zm-14.408-18.7a2.16,2.16,0,1,0,2.162,2.16A2.163,2.163,0,0,0,169.38,5928.34Zm-13.565.17a2.14,2.14,0,0,0-.84-0.17h0a2.16,2.16,0,1,0,0,4.32h0a2.14,2.14,0,0,0,.84-0.17A2.16,2.16,0,0,0,155.815,5928.51Zm20.769,40.11a2.16,2.16,0,1,0-2.162-2.16A2.163,2.163,0,0,0,176.584,5968.62Zm-7.2,2.87a2.16,2.16,0,1,0,2.162,2.16A2.163,2.163,0,0,0,169.38,5971.49Zm14.408,0a2.16,2.16,0,1,0,2.16,2.16A2.163,2.163,0,0,0,183.788,5971.49Zm-14.408-14.38a2.155,2.155,0,1,0,2.162,2.16A2.156,2.156,0,0,0,169.38,5957.11Zm-13.565.17a2.14,2.14,0,0,0-.84-0.17h0a2.155,2.155,0,0,0-1.991,1.32,2.1,2.1,0,0,0-.17.84,2.147,2.147,0,0,0,2.161,2.15h0A2.154,2.154,0,0,0,155.815,5957.28Zm6.364-50.51h0a2.155,2.155,0,1,0,0,4.31h0A2.155,2.155,0,1,0,162.179,5906.77Zm-14.409,0a2.155,2.155,0,1,0,2.162,2.15A2.154,2.154,0,0,0,147.77,5906.77Zm14.409-14.39h0a2.16,2.16,0,1,0,0,4.32h0a2.166,2.166,0,0,0,1.988-1.32A2.16,2.16,0,0,0,162.179,5892.38Zm-21.613,21.58a2.155,2.155,0,1,0,2.162,2.16A2.155,2.155,0,0,0,140.566,5913.96Zm14.409,0a2.155,2.155,0,1,0,2.16,2.16A2.156,2.156,0,0,0,154.975,5913.96Zm7.2,21.57h0a2.16,2.16,0,1,0,0,4.32h0A2.16,2.16,0,0,0,162.179,5935.53Zm-14.409,0a2.16,2.16,0,1,0,2.162,2.16A2.162,2.162,0,0,0,147.77,5935.53Zm-14.406,0a2.16,2.16,0,1,0,2.16,2.16A2.163,2.163,0,0,0,133.364,5935.53Zm28.815-14.38h0a2.157,2.157,0,0,0-2.161,2.16,2.191,2.191,0,0,0,.169.84,2.162,2.162,0,0,0,1.992,1.31h0A2.155,2.155,0,1,0,162.179,5921.15Zm-14.409,0a2.155,2.155,0,1,0,2.162,2.16A2.162,2.162,0,0,0,147.77,5921.15Zm-14.406,0a2.155,2.155,0,1,0,2.16,2.16A2.163,2.163,0,0,0,133.364,5921.15Zm7.2,21.58a2.155,2.155,0,1,0,2.162,2.15A2.153,2.153,0,0,0,140.566,5942.73Zm14.409,0a2.155,2.155,0,1,0,2.16,2.15A2.154,2.154,0,0,0,154.975,5942.73Zm-14.409-14.39a2.16,2.16,0,1,0,2.162,2.16A2.162,2.162,0,0,0,140.566,5928.34Zm-14.406,0a2.16,2.16,0,1,0,2.162,2.16A2.162,2.162,0,0,0,126.16,5928.34Zm36.019,35.96h0a2.16,2.16,0,1,0,0,4.32h0a2.166,2.166,0,0,0,1.988-1.32A2.16,2.16,0,0,0,162.179,5964.3Zm0-14.38h0a2.162,2.162,0,0,0-1.992,1.31,2.191,2.191,0,0,0-.169.84,2.117,2.117,0,0,0,.169.84,2.155,2.155,0,0,0,1.992,1.32h0a2.151,2.151,0,0,0,1.988-1.32,2.1,2.1,0,0,0,.171-0.84A2.15,2.15,0,0,0,162.179,5949.92Zm-14.409,0a2.155,2.155,0,1,0,2.162,2.15A2.154,2.154,0,0,0,147.77,5949.92Z" transform="translate(-124 -5878)"/>
</svg>
